<svg width="87" height="87" viewBox="0 0 87 87" fill="none" xmlns="http://www.w3.org/2000/svg">
<path d="M44.7616 2.98828L41.1071 9.31807H48.4161L44.7616 2.98828ZM44.7616 47.2968V47.9298H45.3946V47.2968H44.7616ZM0.453125 47.2968L6.78291 50.9513V43.6423L0.453125 47.2968ZM44.7616 8.68509H44.1287V47.2968H44.7616H45.3946V8.68509H44.7616ZM44.7616 47.2968V46.6638H6.14993V47.2968V47.9298H44.7616V47.2968Z" fill="white"/>
<path d="M44.7686 0.957031C46.0696 0.957031 47.4379 1.96123 48.7793 4.10449C50.1045 6.22204 51.3169 9.31962 52.3418 13.1914C54.3897 20.928 55.6621 31.6445 55.6621 43.5C55.6621 55.3554 54.3897 66.0711 52.3418 73.8076C51.3169 77.6795 50.1045 80.777 48.7793 82.8945C47.4379 85.0379 46.0697 86.042 44.7686 86.042C43.4675 86.042 42.0992 85.0379 40.7578 82.8945C39.4326 80.777 38.2202 77.6795 37.1953 73.8076C35.1474 66.0711 33.875 55.3554 33.875 43.5C33.875 31.6445 35.1474 20.928 37.1953 13.1914C38.2202 9.3196 39.4326 6.22204 40.7578 4.10449C42.0992 1.96123 43.4675 0.957063 44.7686 0.957031Z" stroke="white" stroke-opacity="0.24"/>
<path d="M86.0391 47.2979C86.0391 48.5989 85.0349 49.9672 82.8916 51.3086C80.7741 52.6338 77.6765 53.8462 73.8047 54.8711C66.0681 56.919 55.3516 58.1914 43.4961 58.1914C31.6407 58.1914 20.925 56.919 13.1885 54.8711C9.31662 53.8462 6.21913 52.6338 4.10156 51.3086C1.95823 49.9672 0.954101 48.5989 0.954101 47.2978C0.954134 45.9968 1.95823 44.6285 4.10156 43.2871C6.21914 41.9619 9.31661 40.7495 13.1885 39.7246C20.925 37.6767 31.6407 36.4043 43.4961 36.4043C55.3516 36.4043 66.0681 37.6767 73.8047 39.7246C77.6765 40.7495 80.7741 41.9619 82.8916 43.2871C85.0349 44.6285 86.039 45.9968 86.0391 47.2979Z" stroke="white" stroke-opacity="0.24"/>
<path d="M73.5744 77.3787C72.6544 78.2987 70.9768 78.5561 68.5127 77.9891C66.0783 77.4289 63.0308 76.0958 59.5683 74.0828C52.6496 70.0603 44.1722 63.3823 35.789 54.9992C27.406 46.6161 20.7286 38.1393 16.7061 31.2206C14.693 27.7581 13.36 24.7106 12.7998 22.2761C12.2328 19.812 12.4902 18.1346 13.4102 17.2145C14.3302 16.2945 16.0077 16.0371 18.4718 16.6041C20.9063 17.1644 23.9538 18.4974 27.4163 20.5105C34.3349 24.5329 42.8118 31.2104 51.1948 39.5934C59.578 47.9765 66.2559 56.4539 70.2784 63.3726C72.2915 66.8351 73.6245 69.8827 74.1848 72.3171C74.7518 74.7811 74.4943 76.4587 73.5744 77.3787Z" stroke="white" stroke-opacity="0.24"/>
<path d="M73.5779 17.2127C74.4979 18.1327 74.7553 19.8103 74.1883 22.2744C73.6281 24.7088 72.295 27.7564 70.282 31.2188C66.2595 38.1375 59.5815 46.6149 51.1984 54.9981C42.8154 63.3811 34.3385 70.0585 27.4199 74.081C23.9573 76.0941 20.9098 77.4271 18.4754 77.9873C16.0113 78.5544 14.3338 78.2969 13.4138 77.3769C12.4938 76.4569 12.2363 74.7794 12.8033 72.3153C13.3636 69.8808 14.6966 66.8334 16.7097 63.3708C20.7321 56.4522 27.4096 47.9753 35.7926 39.5923C44.1757 31.2091 52.6531 24.5312 59.5718 20.5087C63.0343 18.4956 66.0819 17.1626 68.5163 16.6023C70.9803 16.0353 72.6579 16.2928 73.5779 17.2127Z" stroke="white" stroke-opacity="0.24"/>
</svg>
